<svg width="44" height="44" viewBox="0 0 44 44" fill="none" xmlns="http://www.w3.org/2000/svg">
<g clip-path="url(#clip0_452_262)">
<path d="M22.0664 43.4414C33.9836 43.4414 43.6445 33.7805 43.6445 21.8633C43.6445 9.946 33.9836 0.285156 22.0664 0.285156C10.1491 0.285156 0.488281 9.946 0.488281 21.8633C0.488281 33.7805 10.1491 43.4414 22.0664 43.4414Z" fill="#0180DE"/>
<path d="M30.2156 22.8715L18.4176 31.7137C17.5839 32.3453 16.3965 31.739 16.3965 30.7032V13.0187C16.3965 12.7842 16.4618 12.5542 16.5851 12.3547C16.7085 12.1551 16.8849 11.9938 17.0947 11.8889C17.3046 11.784 17.5395 11.7396 17.7731 11.7607C18.0067 11.7817 18.2299 11.8675 18.4176 12.0082L30.2156 20.8504C30.8977 21.3557 30.8977 22.3662 30.2156 22.8715Z" fill="white"/>
</g>
<defs>
<clipPath id="clip0_452_262">
<rect width="44" height="44" fill="white"/>
</clipPath>
</defs>
</svg>
