<svg width="25" height="25" viewBox="0 0 25 25" fill="none" xmlns="http://www.w3.org/2000/svg">
<path d="M8.40987 15.9809C8.40987 16.2756 8.64886 16.5146 8.94365 16.5146H15.9809C16.2756 16.5146 16.5146 16.2756 16.5146 15.9809V8.94365C16.5146 8.64886 16.2756 8.40987 15.9809 8.40987H8.94365C8.64886 8.40987 8.40987 8.64886 8.40987 8.94365V15.9809ZM12.4623 22.5932C11.0608 22.5932 9.74377 22.327 8.51118 21.7948C7.27859 21.2634 6.20638 20.5417 5.29461 19.6299C4.38282 18.7181 3.66116 17.6459 3.12962 16.4133C2.59741 15.1807 2.3313 13.8637 2.3313 12.4623C2.3313 11.0608 2.59741 9.74377 3.12962 8.51118C3.66116 7.27859 4.38282 6.20638 5.29461 5.29461C6.20638 4.38282 7.27859 3.66082 8.51118 3.1286C9.74377 2.59707 11.0608 2.3313 12.4623 2.3313C13.8637 2.3313 15.1807 2.59707 16.4133 3.1286C17.6459 3.66082 18.7181 4.38282 19.6299 5.29461C20.5417 6.20638 21.2634 7.27859 21.7948 8.51118C22.327 9.74377 22.5932 11.0608 22.5932 12.4623C22.5932 13.8637 22.327 15.1807 21.7948 16.4133C21.2634 17.6459 20.5417 18.7181 19.6299 19.6299C18.7181 20.5417 17.6459 21.2634 16.4133 21.7948C15.1807 22.327 13.8637 22.5932 12.4623 22.5932ZM12.4623 20.5669C14.7248 20.5669 16.6413 19.7819 18.2116 18.2116C19.7819 16.6413 20.5669 14.7248 20.5669 12.4623C20.5669 10.1997 19.7819 8.28324 18.2116 6.71294C16.6413 5.14264 14.7248 4.35748 12.4623 4.35748C10.1997 4.35748 8.28324 5.14264 6.71294 6.71294C5.14264 8.28324 4.35748 10.1997 4.35748 12.4623C4.35748 14.7248 5.14264 16.6413 6.71294 18.2116C8.28324 19.7819 10.1997 20.5669 12.4623 20.5669Z" fill="white"/>
</svg>
