<svg width="47" height="47" viewBox="0 0 47 47" fill="none" xmlns="http://www.w3.org/2000/svg">
<g clip-path="url(#clip0_39_15955)">
<path d="M0.935581 23.6383C0.935581 11.2244 10.9991 1.16089 23.413 1.16089C35.8269 1.16089 45.8904 11.2244 45.8904 23.6383C45.8904 36.0522 35.8269 46.1157 23.413 46.1157C10.9991 46.1157 0.935581 36.0522 0.935581 23.6383Z" stroke="white"/>
<path d="M23.416 27.1325C22.3626 27.1325 21.3524 26.714 20.6075 25.9692C19.8627 25.2243 19.4443 24.2141 19.4443 23.1607C19.4443 22.1074 19.8627 21.0972 20.6075 20.3523C21.3524 19.6075 22.3626 19.189 23.416 19.189C24.4693 19.189 25.4796 19.6075 26.2244 20.3523C26.9692 21.0972 27.3877 22.1074 27.3877 23.1607C27.3877 24.2141 26.9692 25.2243 26.2244 25.9692C25.4796 26.714 24.4693 27.1325 23.416 27.1325ZM31.8473 24.2615C31.8927 23.8983 31.9268 23.5352 31.9268 23.1607C31.9268 22.7863 31.8927 22.4118 31.8473 22.026L34.2417 20.1763C34.4573 20.0061 34.5141 19.6997 34.3779 19.45L32.1083 15.5237C31.9722 15.2741 31.6658 15.1719 31.4161 15.2741L28.5905 16.4088C28.0005 15.9663 27.3877 15.5804 26.6728 15.2967L26.2529 12.2896C26.2299 12.1559 26.1602 12.0348 26.0564 11.9475C25.9525 11.8603 25.8211 11.8126 25.6855 11.813H21.1464C20.8627 11.813 20.6244 12.0172 20.579 12.2896L20.1592 15.2967C19.4443 15.5804 18.8315 15.9663 18.2414 16.4088L15.4158 15.2741C15.1662 15.1719 14.8598 15.2741 14.7236 15.5237L12.454 19.45C12.3065 19.6997 12.3746 20.0061 12.5902 20.1763L14.9846 22.026C14.9392 22.4118 14.9052 22.7863 14.9052 23.1607C14.9052 23.5352 14.9392 23.8983 14.9846 24.2615L12.5902 26.1452C12.3746 26.3154 12.3065 26.6218 12.454 26.8715L14.7236 30.7978C14.8598 31.0474 15.1662 31.1382 15.4158 31.0474L18.2414 29.9013C18.8315 30.3552 19.4443 30.741 20.1592 31.0247L20.579 34.0319C20.6244 34.3042 20.8627 34.5085 21.1464 34.5085H25.6855C25.9692 34.5085 26.2075 34.3042 26.2529 34.0319L26.6728 31.0247C27.3877 30.7297 28.0005 30.3552 28.5905 29.9013L31.4161 31.0474C31.6658 31.1382 31.9722 31.0474 32.1083 30.7978L34.3779 26.8715C34.5141 26.6218 34.4573 26.3154 34.2417 26.1452L31.8473 24.2615Z" fill="white"/>
</g>
<defs>
<clipPath id="clip0_39_15955">
<rect width="47" height="47" fill="white"/>
</clipPath>
</defs>
</svg>
