<svg width="25" height="24" viewBox="0 0 25 24" fill="none" xmlns="http://www.w3.org/2000/svg">
<path d="M7.16667 12.6666H6.5V11.3333H7.16667C7.34348 11.3333 7.51305 11.4035 7.63807 11.5285C7.7631 11.6535 7.83333 11.8231 7.83333 11.9999C7.83333 12.1767 7.7631 12.3463 7.63807 12.4713C7.51305 12.5963 7.34348 12.6666 7.16667 12.6666ZM11.8333 15.3333V11.3333H12.5C12.6768 11.3333 12.8464 11.4035 12.9714 11.5285C13.0964 11.6535 13.1667 11.8231 13.1667 11.9999V14.6666C13.1667 14.8434 13.0964 15.013 12.9714 15.138C12.8464 15.263 12.6768 15.3333 12.5 15.3333H11.8333Z" fill="#626262"/>
<path fill-rule="evenodd" clip-rule="evenodd" d="M3.8335 4C3.8335 3.46957 4.04421 2.96086 4.41928 2.58579C4.79436 2.21071 5.30306 2 5.8335 2H16.7762L21.1668 6.39067V20C21.1668 20.5304 20.9561 21.0391 20.581 21.4142C20.206 21.7893 19.6973 22 19.1668 22H5.8335C5.30306 22 4.79436 21.7893 4.41928 21.4142C4.04421 21.0391 3.8335 20.5304 3.8335 20V4ZM7.16683 10H5.16683V16.6667H6.50016V14H7.16683C7.69726 14 8.20597 13.7893 8.58104 13.4142C8.95612 13.0391 9.16683 12.5304 9.16683 12C9.16683 11.4696 8.95612 10.9609 8.58104 10.5858C8.20597 10.2107 7.69726 10 7.16683 10ZM12.5002 10H10.5002V16.6667H12.5002C13.0306 16.6667 13.5393 16.456 13.9144 16.0809C14.2894 15.7058 14.5002 15.1971 14.5002 14.6667V12C14.5002 11.4696 14.2894 10.9609 13.9144 10.5858C13.5393 10.2107 13.0306 10 12.5002 10ZM15.8335 16.6667V10H19.8335V11.3333H17.1668V12.6667H18.5002V14H17.1668V16.6667H15.8335Z" fill="#626262"/>
</svg>
