<svg width="24" height="24" viewBox="0 0 24 24" fill="none" xmlns="http://www.w3.org/2000/svg">
<path d="M12 19.9999C10.1435 19.9999 8.36301 19.2624 7.05025 17.9496C5.7375 16.6369 5 14.8564 5 12.9999C5 11.1433 5.7375 9.36287 7.05025 8.05012C8.36301 6.73736 10.1435 5.99986 12 5.99986C13.8565 5.99986 15.637 6.73736 16.9497 8.05012C18.2625 9.36287 19 11.1433 19 12.9999C19 14.8564 18.2625 16.6369 16.9497 17.9496C15.637 19.2624 13.8565 19.9999 12 19.9999ZM12 3.99986C9.61305 3.99986 7.32387 4.94807 5.63604 6.6359C3.94821 8.32373 3 10.6129 3 12.9999C3 15.3868 3.94821 17.676 5.63604 19.3638C7.32387 21.0517 9.61305 21.9999 12 21.9999C14.3869 21.9999 16.6761 21.0517 18.364 19.3638C20.0518 17.676 21 15.3868 21 12.9999C21 10.6129 20.0518 8.32373 18.364 6.6359C16.6761 4.94807 14.3869 3.99986 12 3.99986ZM12.5 7.99986H11V13.9999L15.75 16.8499L16.5 15.6199L12.5 13.2499V7.99986ZM7.88 3.38986L6.6 1.85986L2 5.70986L3.29 7.23986L7.88 3.38986ZM22 5.71986L17.4 1.85986L16.11 3.38986L20.71 7.24986L22 5.71986Z" fill="#626262"/>
</svg>
