<svg width="92" height="83" viewBox="0 0 92 83" fill="none" xmlns="http://www.w3.org/2000/svg">
<g clip-path="url(#clip0_29_14243)">
<path d="M45.8381 16.4411H11.661C10.2358 16.4411 10.233 16.4411 10.233 17.8381C10.233 28.3925 10.233 38.946 10.233 49.4986C10.233 50.8509 10.233 50.8565 11.5962 50.8565H31.2592C33.1745 50.8565 33.5548 51.1806 33.9153 53.0723C34.197 54.5112 35.2391 55.3439 36.8756 55.3495C41.1315 55.3635 45.3846 55.3495 49.6406 55.3495C50.0168 55.3346 50.3936 55.3505 50.7672 55.397C51.1833 55.4462 51.5655 55.6484 51.8385 55.9637C52.1114 56.279 52.2552 56.6844 52.2414 57.0997C52.2276 57.5151 52.0572 57.9102 51.7639 58.207C51.4706 58.5038 51.0758 58.6806 50.6574 58.7025C50.4184 58.7206 50.1787 58.7262 49.9392 58.7192C45.579 58.7192 41.2207 58.7192 36.8643 58.7192C34.1209 58.7192 32.1295 57.4842 30.9832 55.017C30.6818 54.3715 30.2987 54.2123 29.6424 54.2123C21.3033 54.229 12.9642 54.229 4.62503 54.2123C3.64483 54.2123 3.39978 54.5336 3.43921 55.4529C3.62511 59.7335 7.55152 63.4804 12.0384 63.5C20.1363 63.5335 28.2369 63.5 36.3348 63.5H49.4096C49.7869 63.4784 50.1654 63.5037 50.5363 63.5754C50.9141 63.6424 51.2541 63.8442 51.4923 64.1427C51.7304 64.4413 51.8502 64.8159 51.8291 65.196C51.8465 65.5587 51.7335 65.9158 51.5101 66.2034C51.2867 66.491 50.9675 66.6906 50.6095 66.7664C50.2088 66.8565 49.7976 66.8922 49.3871 66.8725C37.1385 66.8725 24.888 66.8725 12.6356 66.8725C6.10376 66.8725 1.24505 62.7931 0.146557 56.4057C-0.0815909 55.0924 0.00853889 53.754 0.0733217 52.4324C0.121205 51.4572 0.808463 50.8872 1.88442 50.8537C3.11811 50.8174 4.35744 50.7811 5.58831 50.8537C6.60794 50.918 6.85298 50.5296 6.85016 49.5684C6.82012 38.539 6.81354 27.5096 6.83044 16.4802C6.83044 13.2809 6.83044 10.0816 6.83044 6.8795C6.85016 2.99564 9.68089 0.126055 13.6101 0.00311279C13.7819 0.00311279 13.9537 0.00311279 14.1256 0.00311279H77.6437C80.8687 0.00311279 83.3023 1.5371 84.4036 4.24462C84.7729 5.16331 84.9576 6.14477 84.9472 7.13376C84.9472 18.9809 84.9472 30.8272 84.9472 42.6725C84.9795 43.1506 84.8964 43.6295 84.705 44.0695C84.5648 44.405 84.3105 44.6811 83.9862 44.8496C83.6619 45.0181 83.2883 45.0683 82.9305 44.9916C82.5848 44.9492 82.2637 44.7919 82.0197 44.5453C81.7757 44.2987 81.6232 43.9773 81.587 43.6336C81.5462 43.2626 81.5349 42.8888 81.5532 42.516C81.5532 34.2789 81.5532 26.0408 81.5532 17.8018C81.5532 16.4494 81.5532 16.4466 80.2068 16.4438L45.8381 16.4411ZM45.8381 13.0629H80.142C81.5841 13.0629 81.5841 13.0629 81.5841 11.5904C81.5841 10.2977 81.5841 9.00398 81.5841 7.70936C81.5841 4.59948 80.3533 3.37285 77.2296 3.37285H14.5283C14.2467 3.37285 13.9791 3.37285 13.7031 3.37285C11.5849 3.45108 10.2611 4.76992 10.2358 6.8767C10.2189 8.30451 10.2358 9.73511 10.2358 11.1657C10.2358 13.2446 10.0471 13.0546 12.0919 13.0546C23.3435 13.062 34.5969 13.0639 45.8522 13.0601L45.8381 13.0629Z" fill="#583691"/>
<path d="M91.9999 65.2125C91.982 69.9314 90.0818 74.4513 86.7144 77.7844C83.3471 81.1175 78.7866 82.9926 74.0297 83C64.2616 82.9776 56.0511 74.9138 56.1384 65.2097C56.2313 55.0027 64.3573 47.4362 74.086 47.3915C83.964 47.3467 92.0055 55.3883 91.9999 65.2125ZM74.1283 66.889H70.8469C68.8133 66.889 68.7654 66.889 68.9457 68.9119C69.2273 71.8793 69.8385 74.7796 71.4074 77.3558C73.2072 80.3204 75.024 80.3232 76.7844 77.3558C78.5448 74.3885 79.1025 71.1445 79.3419 67.7943C79.3898 67.1349 79.1194 66.875 78.4546 66.889C77.0069 66.9029 75.5676 66.8862 74.1283 66.8834V66.889ZM73.9452 63.5081C75.3535 63.5081 76.7618 63.4494 78.1702 63.5276C79.187 63.5863 79.4264 63.1644 79.3222 62.2675C79.0405 59.9651 78.6856 57.6823 77.8181 55.514C77.297 54.212 76.6914 52.949 75.6633 51.9487C74.6353 50.9484 73.6663 50.9205 72.5904 51.8844C72.0589 52.371 71.6158 52.9447 71.2807 53.5805C69.6893 56.4808 69.0752 59.6326 68.8443 62.8878C68.7964 63.55 69.2076 63.5053 69.6273 63.5053L73.9452 63.5081ZM80.2347 52.1359C80.2122 52.3818 80.1784 52.46 80.2038 52.5075C81.7755 55.7711 82.519 59.233 82.7387 62.8235C82.7725 63.3656 83.0514 63.5137 83.5331 63.5081C84.5949 63.5081 85.6568 63.5081 86.7158 63.5081C88.6565 63.5081 88.6875 63.5081 88.1636 61.6108C86.9665 57.3107 84.3668 54.1617 80.2347 52.1303V52.1359ZM68.1232 52.1918C67.9626 52.1918 67.8866 52.1694 67.8415 52.1918C63.41 54.3992 60.7192 57.917 59.769 62.7453C59.6395 63.4075 59.9577 63.5109 60.4873 63.5053C61.6534 63.5053 62.8195 63.5053 63.9855 63.5053C65.3404 63.5053 65.4164 63.441 65.5037 62.0803C65.6431 59.9772 66.021 57.8964 66.6304 55.8773C67.0371 54.6114 67.5389 53.3776 68.1316 52.1862L68.1232 52.1918ZM80.3052 77.9873C80.4601 78.0125 80.5361 78.0544 80.5868 78.032C84.9047 75.8386 87.4792 72.3599 88.3861 67.6434C88.5016 67.0343 88.2566 66.8694 87.6763 66.8806C86.3412 66.9085 85.0033 66.9169 83.6682 66.8806C82.9387 66.861 82.7416 67.16 82.7134 67.8502C82.6631 68.9008 82.5578 69.9482 82.3979 70.988C82.0631 73.4103 81.3604 75.7682 80.3136 77.9817L80.3052 77.9873ZM67.7627 78.0655C66.8433 75.9277 66.1925 73.6858 65.8248 71.3903C65.6305 70.1497 65.5009 68.898 65.3657 67.649C65.315 67.1768 65.1545 66.8862 64.6165 66.8918C63.1772 66.8918 61.7379 66.8918 60.2986 66.8918C59.7859 66.8918 59.6676 67.1432 59.7578 67.6182C60.6816 72.4186 63.3828 75.8721 67.7711 78.06L67.7627 78.0655Z" fill="#583691"/>
<path d="M59.3356 34.6781C59.8736 33.0268 60.3975 31.4201 60.9158 29.8107C61.0303 29.346 61.2642 28.9186 61.5946 28.5701C62.6564 27.581 64.2901 28.0113 64.8112 29.4726C65.4111 31.1659 65.9209 32.8954 66.5575 34.8821C66.8673 33.9824 67.0955 33.3285 67.3152 32.6719C67.6841 31.5766 68.0306 30.4729 68.4165 29.3832C68.8024 28.2935 69.5882 27.8185 70.5149 28.1538C71.4415 28.4891 71.757 29.2714 71.3993 30.3276C70.4726 33.0659 69.5037 35.7902 68.5826 38.5284C68.2644 39.4617 67.6194 39.8864 66.6533 39.8976C65.6224 39.8976 65.0027 39.4114 64.6816 38.439C64.1662 36.824 63.6056 35.223 63.0564 33.5968C62.6254 33.7393 62.6452 34.0885 62.5551 34.3484C62.0509 35.793 61.5777 37.2487 61.0622 38.6905C60.7439 39.579 60.0398 39.9199 59.1244 39.8976C58.254 39.8724 57.5949 39.5232 57.2992 38.6737C56.3331 35.8796 55.3613 33.0854 54.4234 30.2913C54.0854 29.277 54.5023 28.45 55.4036 28.1482C56.2486 27.8688 57.0485 28.2823 57.3949 29.2659C57.916 30.7412 58.3667 32.2388 58.868 33.7197C58.9694 34.0187 58.9723 34.3819 59.3356 34.6781Z" fill="#583691"/>
<path d="M44.8917 33.2252C44.2748 35.0441 43.7481 36.6172 43.2017 38.1876C42.7623 39.4701 42.2159 39.8948 41.0948 39.8976C39.9738 39.9004 39.4049 39.2326 39.0809 38.2211C38.2697 35.7315 37.391 33.2587 36.546 30.7803C36.4489 30.5255 36.3707 30.264 36.3122 29.9979C36.1516 29.1094 36.4671 28.4556 37.3431 28.137C37.5299 28.0687 37.7288 28.0388 37.9276 28.0493C38.1265 28.0597 38.3211 28.1103 38.4996 28.1979C38.678 28.2855 38.8366 28.4083 38.9657 28.5588C39.0947 28.7093 39.1914 28.8843 39.2499 29.0731C39.833 30.635 40.3259 32.2276 40.8611 33.8063C40.954 34.0858 40.9399 34.4099 41.3033 34.6725C41.7596 33.2475 42.213 31.8784 42.6412 30.4813C43.0017 29.3189 43.3313 28.0616 44.8551 28.0476C46.3789 28.0336 46.7422 29.2686 47.1084 30.4394C47.5069 31.8384 48.0223 33.202 48.6491 34.516C49.0744 33.2475 49.4941 31.979 49.9222 30.7104C50.1053 30.1516 50.2715 29.6067 50.5024 29.0786C50.8714 28.2404 51.6488 27.8604 52.4093 28.1314C53.2909 28.4416 53.5951 29.1038 53.4599 29.9867C53.4231 30.187 53.3674 30.3835 53.2937 30.5735C52.3999 33.1479 51.5052 35.7194 50.6095 38.2881C50.187 39.4924 49.6265 39.9143 48.5421 39.8948C47.4577 39.8752 46.8887 39.2577 46.5704 38.2742C46.0606 36.6647 45.5113 35.0693 44.8917 33.2252Z" fill="#583691"/>
<path d="M30.5322 34.8597C31.0645 33.2279 31.5237 31.8141 31.9884 30.3891C32.1264 29.97 32.2701 29.5508 32.4334 29.1401C32.8362 28.218 33.5798 27.8464 34.4051 28.1258C35.2698 28.4248 35.6923 29.2267 35.3909 30.1795C34.9487 31.5766 34.4417 32.9457 33.9629 34.3288C33.484 35.7119 32.9996 37.0922 32.5348 38.4781C32.4232 38.9115 32.1586 39.2908 31.7891 39.5471C31.4195 39.8035 30.9696 39.9199 30.5209 39.8752C29.5351 39.8556 28.9352 39.3639 28.6338 38.4446C28.1122 36.769 27.4876 35.1267 26.7635 33.5269C26.2002 35.1475 25.6369 36.7625 25.1102 38.3915C24.8144 39.3108 24.2652 39.8445 23.2653 39.8724C22.2654 39.9003 21.5471 39.5343 21.2091 38.5368C20.2712 35.765 19.2994 33.0044 18.3728 30.2298C18.0263 29.196 18.4319 28.3969 19.3529 28.1091C20.2148 27.8297 20.9838 28.2432 21.3246 29.2435C21.933 30.9731 22.4907 32.7166 23.178 34.7815C23.4596 33.9796 23.6652 33.4654 23.837 32.9429C24.1835 31.8784 24.5074 30.8026 24.8623 29.7353C25.2425 28.5925 25.958 27.9694 26.8875 28.0197C27.9465 28.0783 28.538 28.7098 28.8366 29.6961C29.2591 31.0932 29.721 32.4903 30.1689 33.8874C30.2477 34.1444 30.3519 34.3847 30.5322 34.8597Z" fill="#583691"/>
<path d="M55.778 10.1036H41.2723C40.8622 10.1255 40.4509 10.0992 40.047 10.0254C39.6869 9.96365 39.3601 9.778 39.1242 9.50105C38.8883 9.2241 38.7583 8.87355 38.757 8.51097C38.7172 8.13292 38.8185 7.75352 39.0417 7.44457C39.2649 7.13562 39.5945 6.91856 39.9682 6.83448C40.2992 6.75081 40.6409 6.71598 40.9822 6.7311C50.8235 6.7311 60.6649 6.7311 70.5062 6.7311C70.8485 6.71877 71.1905 6.75931 71.5202 6.85125C72.3201 7.11389 72.7989 7.68949 72.7342 8.52773C72.7174 8.90806 72.5649 9.27008 72.3038 9.54906C72.0427 9.82805 71.6901 10.0058 71.309 10.0505C70.9356 10.1003 70.5584 10.1153 70.1823 10.0952L55.778 10.1036Z" fill="#583691"/>
<path d="M16.8125 7.16139C17.2598 7.18306 17.6812 7.37601 17.988 7.69964C18.2948 8.02327 18.4631 8.45234 18.4574 8.89656C18.4029 9.30725 18.1971 9.68339 17.8796 9.95244C17.5621 10.2215 17.1554 10.3644 16.738 10.3537C16.3206 10.3429 15.9219 10.1792 15.6189 9.89417C15.316 9.60912 15.1301 9.22288 15.0972 8.80994C15.1111 8.3679 15.2979 7.9486 15.6181 7.64088C15.9383 7.33315 16.3667 7.16118 16.8125 7.16139Z" fill="#583691"/>
<path d="M25.0514 8.81272C25.0755 9.04689 25.0497 9.28348 24.9756 9.5071C24.9015 9.73071 24.7808 9.93634 24.6212 10.1106C24.4617 10.2848 24.267 10.4238 24.0497 10.5185C23.8325 10.6131 23.5975 10.6613 23.3603 10.6599C23.123 10.6586 22.8886 10.6076 22.6725 10.5105C22.4564 10.4133 22.2633 10.2721 22.1059 10.096C21.9484 9.91985 21.8301 9.71283 21.7586 9.48837C21.6872 9.26391 21.6642 9.02703 21.6911 8.79316C21.7384 8.38247 21.937 8.00359 22.2487 7.72929C22.5605 7.45499 22.9634 7.30461 23.3801 7.30704C23.7968 7.30946 24.1979 7.46452 24.5064 7.74243C24.8148 8.02034 25.0089 8.4015 25.0514 8.81272Z" fill="#583691"/>
<path d="M31.5012 8.8686C31.4872 9.31231 31.2964 9.73241 30.9706 10.0367C30.6448 10.3411 30.2107 10.5048 29.7634 10.492C29.4291 10.4824 29.1052 10.3747 28.8326 10.1824C28.5601 9.99017 28.3512 9.72202 28.2324 9.41192C28.1135 9.10181 28.0901 8.76371 28.1651 8.4404C28.24 8.11709 28.41 7.82312 28.6535 7.59569C28.897 7.36825 29.203 7.21759 29.5328 7.16277C29.8626 7.10795 30.2014 7.15144 30.5063 7.28773C30.8112 7.42402 31.0685 7.64698 31.2456 7.92839C31.4227 8.2098 31.5117 8.53701 31.5012 8.8686Z" fill="#583691"/>
</g>
<defs>
<clipPath id="clip0_29_14243">
<rect width="92" height="83" fill="white"/>
</clipPath>
</defs>
</svg>
