<svg width="90" height="90" viewBox="0 0 90 90" fill="none" xmlns="http://www.w3.org/2000/svg">
<g clip-path="url(#clip0_29_14262)">
<path d="M40.6347 90.0061C38.3247 89.6909 35.9904 89.4969 33.7046 88.9938C30.8838 88.4525 28.161 87.4879 25.6286 86.1328C24.491 85.5211 23.4936 84.6788 22.7002 83.6598C21.9744 82.7309 21.5854 81.5834 21.5967 80.4048C21.5967 72.7613 21.5967 65.1239 21.5967 57.4865C21.5967 56.347 21.5967 56.347 20.4265 56.347C18.4075 56.347 16.3825 56.347 14.3635 56.347C6.6755 56.2924 0.0364473 49.637 -0.00599405 41.9329C-0.0423724 35.7382 2.72845 31.1921 8.14882 28.2402C8.54292 28.028 8.75513 27.834 8.75513 27.3128C8.62187 25.2656 8.86434 23.2113 9.47056 21.2513C9.51674 21.0137 9.60993 20.7877 9.74463 20.5865C9.87933 20.3853 10.0528 20.2131 10.255 20.0798C10.4572 19.9466 10.684 19.8551 10.922 19.8106C11.16 19.7661 11.4045 19.7696 11.6411 19.8209C11.8963 19.8683 12.1384 19.9698 12.351 20.1185C12.5637 20.2673 12.7421 20.4597 12.8742 20.6831C13.0062 20.9064 13.089 21.1555 13.1169 21.4135C13.1447 21.6714 13.117 21.9324 13.0356 22.1787C12.6079 23.7299 12.4038 25.3342 12.4293 26.943C12.4293 27.5492 12.5567 28.1068 12.587 28.6887C12.6537 30.0283 12.3202 30.5435 11.0652 31.0163C9.66682 31.5116 8.38282 32.2838 7.28999 33.2868C6.19715 34.2898 5.31796 35.5029 4.70501 36.8535C3.96323 38.4622 3.61544 40.2245 3.69046 41.9944C3.76547 43.7643 4.26115 45.4909 5.13639 47.0312C6.01164 48.5715 7.24129 49.8812 8.72356 50.8519C10.2058 51.8226 11.8981 52.4264 13.6602 52.6131C16.0854 52.8556 18.5106 52.6677 20.9358 52.7465C21.5967 52.7465 21.6149 52.3707 21.6149 51.8918C21.6149 48.9036 21.6513 45.9153 21.6149 42.9331C21.5955 42.0821 21.7705 41.238 22.1267 40.4649C22.4829 39.6918 23.0108 39.0102 23.6703 38.4718C25.756 36.611 28.2964 35.6169 30.9459 34.8835C36.869 33.2919 43.0216 32.7301 49.1351 33.2226C53.5834 33.4231 57.9723 34.3232 62.1403 35.8897C63.706 36.4808 65.1565 37.3402 66.4269 38.4294C67.0992 38.9756 67.6381 39.6678 68.0027 40.4535C68.3672 41.2391 68.5479 42.0975 68.5308 42.9634C68.4702 45.9153 68.5308 48.8732 68.5308 51.8312C68.5308 52.3283 68.5308 52.7283 69.2341 52.7525C77.9103 53.0496 84.3129 47.5034 86.0288 40.363C86.5397 38.1714 86.5853 35.8971 86.1624 33.6868C85.7396 31.4765 84.8578 29.3795 83.5739 27.531C82.2901 25.6826 80.6328 24.1239 78.709 22.9556C76.7851 21.7873 74.6377 21.0353 72.4051 20.7482C71.7988 20.6694 71.1925 20.6876 70.5862 20.6028C70.1083 20.5972 69.6504 20.4099 69.3057 20.0788C68.9611 19.7478 68.7555 19.2979 68.7309 18.8207C68.0025 14.6869 65.8591 10.9348 62.6678 8.20716C59.7744 5.63559 56.1081 4.09827 52.2454 3.83688C45.1092 3.32772 39.513 6.07355 35.3295 11.8501C34.5292 12.9593 33.8986 13.1836 32.6133 12.7047C29.505 11.5318 26.0986 11.4062 22.9124 12.3471C21.6391 12.6987 20.6509 12.2501 20.3295 11.2136C20.0082 10.1771 20.5842 9.18911 21.8756 8.78905C25.1916 7.74562 28.7403 7.69295 32.0858 8.63752C32.337 8.73817 32.6157 8.74717 32.8729 8.66294C33.1301 8.5787 33.3494 8.40662 33.4924 8.17686C36.0484 5.04078 39.4158 2.66555 43.2281 1.30961C47.0405 -0.046321 51.1518 -0.331028 55.1147 0.486471C59.0777 1.30397 62.7404 3.19235 65.7046 5.94617C68.6687 8.7 70.8205 12.2138 71.9261 16.1052C71.9682 16.3754 72.1033 16.6226 72.308 16.804C72.5128 16.9854 72.7744 17.0899 73.0478 17.0993C77.1095 17.648 80.8995 19.4474 83.8918 22.2477C86.884 25.0479 88.9299 28.71 89.7454 32.7256C89.8424 33.2105 89.9455 33.6954 90.0486 34.1804V39.0962C90.0001 39.2962 89.9455 39.4902 89.9152 39.7023C89.5316 42.3182 88.5953 44.8226 87.1686 47.0488C83.0336 53.3223 77.2192 56.4985 69.6585 56.3834C68.5065 56.3834 68.5005 56.3833 68.5005 57.535C68.5005 65.1421 68.5005 72.7492 68.5005 80.3563C68.5188 81.6226 68.0894 82.8548 67.2879 83.8355C66.4887 84.8115 65.5036 85.6192 64.3897 86.2116C61.8572 87.5648 59.1312 88.5196 56.3077 89.0423C54.0461 89.5333 51.7543 89.7636 49.4625 90.0424L40.6347 90.0061ZM44.7454 36.7989C40.607 36.7169 36.4772 37.2085 32.4738 38.2597C30.3214 38.8658 28.1993 39.5447 26.4107 40.9631C24.8889 42.1754 24.9192 43.1391 26.4653 44.3272C28.1771 45.5678 30.125 46.4445 32.1889 46.9033C40.237 48.9638 48.6625 49.0615 56.7564 47.1882C59.2436 46.7436 61.5981 45.7428 63.644 44.2605C65.0749 43.1331 65.0991 42.236 63.7289 41.0601C62.5126 40.0913 61.124 39.3611 59.6363 38.9083C54.9253 37.2656 50.0324 36.7686 44.7454 36.7989ZM64.8141 77.1195C64.8141 76.1254 64.8141 75.1313 64.8141 74.1372C64.8141 73.3735 64.5777 73.3735 64.0078 73.6948C61.9126 74.8188 59.6664 75.6354 57.3384 76.1193C50.8405 77.5587 44.1409 77.85 37.5425 76.98C33.4682 76.4891 29.4726 75.5981 25.8166 73.5978C25.2952 73.3129 25.2103 73.5432 25.2103 73.9978C25.2103 75.7253 25.3133 77.4589 25.2103 79.1743C25.1072 80.8897 25.8833 81.9201 27.2293 82.7445C29.0532 83.8043 31.0313 84.5733 33.0922 85.0236C37.7962 86.1217 42.6318 86.5502 47.4556 86.2965C51.1072 86.1999 54.7334 85.6585 58.2539 84.6841C60.1341 84.2043 61.9099 83.3824 63.4924 82.2596C63.9408 81.9774 64.3023 81.5765 64.5366 81.1015C64.771 80.6264 64.8692 80.0957 64.8202 79.5683C64.7535 78.7864 64.8202 77.9559 64.8141 77.1195ZM64.8141 64.542C64.8141 63.5176 64.8141 62.4933 64.8141 61.4689C64.8141 60.8021 64.6505 60.7051 64.0684 61.0385C62.317 61.9891 60.4503 62.7103 58.5146 63.1843C51.5724 65.0027 44.5272 65.1785 37.4455 64.3299C33.3893 63.845 29.4301 62.9418 25.7984 60.9476C25.2406 60.6385 25.2285 60.984 25.2285 61.384C25.2285 63.1115 25.3376 64.8511 25.2285 66.5605C25.1193 68.2698 25.8954 69.2699 27.1929 70.0761C28.8004 71.0463 30.5493 71.7601 32.3768 72.1915C37.4004 73.4669 42.5909 73.9597 47.7648 73.6523C51.158 73.5319 54.5274 73.0359 57.8113 72.1733C59.8425 71.7054 61.7663 70.8559 63.4803 69.67C63.9434 69.3839 64.3172 68.974 64.5593 68.4866C64.8015 67.9992 64.9024 67.4538 64.8505 66.912C64.7535 66.1422 64.8202 65.3482 64.8141 64.5602V64.542ZM64.8141 51.813C64.8141 50.7887 64.8141 49.7643 64.8141 48.7399C64.8141 48.1883 64.6868 48.0731 64.1654 48.352C59.3513 50.8856 54.1068 51.7039 48.7713 52.0555C45.0935 52.3122 41.3992 52.2046 37.7426 51.7342C33.6379 51.1948 29.6181 50.3462 25.9196 48.3702C25.3618 48.0731 25.2224 48.1822 25.2285 48.7884C25.2285 50.4856 25.3376 52.1888 25.2285 53.8739C25.1193 55.559 25.8348 56.6561 27.2232 57.4501C27.6052 57.6684 27.9811 57.8987 28.3752 58.0563C31.9463 59.7232 35.7539 60.4142 39.6464 60.7961C45.2543 61.4056 50.924 61.1027 56.435 59.899C58.9815 59.3231 61.4673 58.5473 63.6015 56.9471C64.005 56.6795 64.3299 56.3094 64.543 55.8748C64.7561 55.4402 64.8497 54.9567 64.8141 54.474C64.7778 53.5951 64.8141 52.7162 64.8141 51.8433V51.813Z" fill="#583691"/>
<path d="M13.5084 14.7596C13.5074 14.5236 13.5543 14.2898 13.6462 14.0724C13.7381 13.855 13.8731 13.6585 14.0431 13.4948C14.2131 13.331 14.4146 13.2034 14.6353 13.1198C14.8561 13.0361 15.0915 12.998 15.3273 13.0078C15.5676 13.0029 15.8063 13.0465 16.0292 13.1361C16.2521 13.2258 16.4546 13.3595 16.6245 13.5294C16.7944 13.6992 16.9282 13.9017 17.0179 14.1245C17.1075 14.3474 17.1512 14.5861 17.1463 14.8262C17.1415 15.065 17.0897 15.3006 16.9939 15.5193C16.898 15.7381 16.76 15.9359 16.5878 16.1014C16.4155 16.2669 16.2123 16.3968 15.9898 16.4838C15.7673 16.5708 15.5298 16.6131 15.291 16.6083C15.0521 16.6035 14.8165 16.5518 14.5977 16.456C14.3788 16.3602 14.181 16.2222 14.0154 16.05C13.8499 15.8777 13.7199 15.6746 13.6329 15.4521C13.546 15.2297 13.5036 14.9923 13.5084 14.7535V14.7596Z" fill="white"/>
</g>
<defs>
<clipPath id="clip0_29_14262">
<rect width="90" height="90" fill="white"/>
</clipPath>
</defs>
</svg>
