<svg width="75" height="82" viewBox="0 0 75 82" fill="none" xmlns="http://www.w3.org/2000/svg">
<g clip-path="url(#clip0_124_135)">
<path d="M48.7231 82C46.7759 81.6601 44.8351 81.2993 42.9779 80.581C38.245 78.7516 34.4261 75.771 31.6195 71.5526C31.1769 70.8856 30.7086 70.6627 29.9265 70.6675C23.1009 70.6943 16.2753 70.6985 9.4497 70.6804C4.59926 70.6723 0.90429 67.5586 0.0803264 62.7999C0.0171846 62.3512 -0.00811156 61.898 0.00469385 61.4451C0.00469385 44.0584 0.00469385 26.6711 0.00469385 9.28338C0.00469385 4.03562 4.05691 0.022443 9.3306 0.0160297C18.3781 0.00480622 27.4256 0.0160299 36.4731 -3.57229e-06C36.8723 -0.011514 37.2692 0.0641928 37.6359 0.2218C38.0026 0.379407 38.3303 0.615091 38.5958 0.9123C44.1651 6.74955 49.7402 12.5799 55.3213 18.4032C55.6047 18.6851 55.8271 19.0219 55.9746 19.3929C56.1222 19.7638 56.1917 20.1609 56.1791 20.5597C56.1533 25.1998 56.1791 29.8399 56.1485 34.48C56.1485 35.2416 56.3947 35.5141 57.1141 35.721C66.6267 38.4467 72.5939 44.6612 74.5187 54.2974C76.0234 61.8331 73.92 68.6217 68.7252 74.3584C64.8854 78.5977 60.0655 81.054 54.4024 81.8717C54.2189 81.899 54.0403 81.9567 53.86 82H48.7231ZM3.60793 35.3426C3.60793 43.8211 3.60793 52.3001 3.60793 60.7797C3.60793 61.4435 3.5677 62.1105 3.74955 62.7662C4.48661 65.4422 6.56421 67.0584 9.4159 67.068C15.7051 67.0905 21.9942 67.0776 28.2834 67.0776C29.2329 67.0776 29.2329 67.0776 28.9094 66.1365C27.5293 62.2168 27.244 57.9973 28.0838 53.9286C28.2222 53.244 28.0613 53.0628 27.358 53.0676C23.103 53.0981 18.848 53.0836 14.593 53.082C14.2707 53.0933 13.948 53.0809 13.6274 53.0451C13.2282 52.9809 12.8626 52.7835 12.5907 52.4852C12.3188 52.1869 12.1566 51.8054 12.1308 51.4033C12.1132 51.0004 12.2348 50.6037 12.4752 50.2793C12.7156 49.9548 13.0604 49.7223 13.452 49.6204C13.8946 49.5124 14.3502 49.467 14.8055 49.4857C19.3812 49.4857 23.9576 49.4857 28.5344 49.4857C29.0349 49.4857 29.4727 49.4857 29.7028 48.8957C30.2049 47.6242 30.958 46.4907 31.6983 45.3443C31.8593 45.0893 32.2407 44.8328 32.0636 44.5266C31.922 44.2828 31.5181 44.4239 31.2332 44.4239C25.6672 44.4175 20.1001 44.4175 14.5319 44.4239C12.9966 44.4239 12.1002 43.7217 12.1179 42.5641C12.1421 41.4337 12.9837 40.8244 14.5319 40.8244C21.2234 40.8244 27.9132 40.8148 34.6047 40.8373C35.269 40.8506 35.9153 40.6226 36.4232 40.1959C40.8569 36.6846 45.9262 34.953 51.5813 34.945C52.3183 34.945 52.5581 34.7381 52.5469 33.999C52.5179 30.2664 52.5179 26.5338 52.5469 22.8012C52.5469 22.0492 52.291 21.8392 51.57 21.8552C48.7344 21.8873 45.8972 21.9001 43.06 21.8552C39.8575 21.8087 37.4049 20.4491 35.8873 17.5727C35.2066 16.29 35.0602 14.8791 35.0489 13.4617C35.0264 10.4763 35.0344 7.48923 35.0489 4.5022C35.0489 3.94904 34.9652 3.5963 34.2732 3.59791C25.789 3.61715 17.3052 3.6257 8.82207 3.62356C8.12326 3.63691 7.43764 3.81551 6.8217 4.14465C4.55902 5.29104 3.57412 7.16856 3.57895 9.66978C3.62079 18.2301 3.60148 26.7887 3.60148 35.349L3.60793 35.3426ZM51.3077 78.4598C62.1174 78.5592 71.329 69.7135 71.3162 58.5254C71.3017 47.6178 62.6629 38.6022 51.3061 38.5765C39.8704 38.5557 31.2477 47.7333 31.2574 58.5687C31.2593 61.1877 31.7797 63.7807 32.789 66.1991C33.7983 68.6174 35.2765 70.8136 37.139 72.6619C39.0015 74.5103 41.2117 75.9743 43.643 76.9703C46.0743 77.9663 48.6789 78.4747 51.3077 78.4662V78.4598ZM49.9494 18.2445C49.9415 18.1822 49.927 18.1209 49.906 18.0617C46.373 14.3505 42.839 10.6403 39.3039 6.93127C39.18 6.8014 39.0496 6.58494 38.8485 6.67794C38.6216 6.78376 38.673 7.04831 38.6763 7.25514C38.7149 9.66016 38.5733 12.0524 38.7696 14.4462C38.9434 16.569 40.3693 18.121 42.5193 18.2188C44.9719 18.3295 47.4325 18.2445 49.9494 18.2445Z" fill="#583691"/>
<path d="M22.5913 35.8124C19.7815 35.8124 16.9717 35.8124 14.1634 35.8124C13.3411 35.8124 12.6861 35.5606 12.3175 34.7958C12.2012 34.562 12.1398 34.3049 12.1377 34.0439C12.1357 33.7829 12.1932 33.5249 12.3059 33.2893C12.4185 33.0537 12.5834 32.8466 12.7881 32.6838C12.9928 32.5209 13.232 32.4065 13.4875 32.3491C13.878 32.2594 14.2777 32.2159 14.6784 32.2193C19.9247 32.2118 25.17 32.2118 30.4142 32.2193C30.8147 32.2186 31.2142 32.2584 31.6067 32.3379C32.0343 32.4086 32.4189 32.6386 32.6827 32.9812C32.9466 33.3239 33.0699 33.7536 33.0277 34.1834C33.0074 34.6151 32.8211 35.0225 32.5074 35.3211C32.1936 35.6196 31.7766 35.7864 31.3427 35.7867C29.2506 35.8204 27.1682 35.8043 25.0809 35.806C24.2495 35.8124 23.4196 35.8145 22.5913 35.8124Z" fill="#583691"/>
<path d="M53.107 51.6711V69.4458C53.1325 69.8186 53.0989 70.193 53.0072 70.5553C52.9031 70.9312 52.6747 71.2611 52.3589 71.4916C52.0432 71.722 51.6586 71.8396 51.2675 71.8252C50.4516 71.8107 49.8771 71.3602 49.6148 70.5601C49.5057 70.1472 49.4633 69.7197 49.4892 69.2935V51.9773C49.0901 51.9773 48.9469 52.2707 48.7634 52.4583C46.8323 54.4892 44.907 56.5282 42.9876 58.5751C42.7892 58.7935 42.574 58.9961 42.3439 59.1812C41.5924 59.7664 40.6542 59.7327 40.0008 59.1154C39.6777 58.8267 39.4762 58.4268 39.4368 57.9962C39.3974 57.5655 39.523 57.136 39.7884 56.7938C40.2859 56.1669 40.8172 55.5675 41.38 54.998C44.1018 52.0949 46.8264 49.1939 49.5536 46.2951C50.7976 44.9771 51.7407 44.9883 52.9943 46.3207C56.0874 49.6086 59.1746 52.9019 62.2558 56.2005C62.6035 56.5725 62.9366 56.9605 63.0364 57.4832C63.1073 57.8671 63.0516 58.2636 62.8776 58.6133C62.7035 58.963 62.4205 59.2472 62.0708 59.4233C61.3772 59.7776 60.5629 59.6205 59.8853 58.931C59.0807 58.1117 58.3163 57.2523 57.5325 56.4122L53.107 51.6711Z" fill="#583691"/>
</g>
<defs>
<clipPath id="clip0_124_135">
<rect width="75" height="82" fill="white"/>
</clipPath>
</defs>
</svg>
