<svg width="47" height="47" viewBox="0 0 47 47" fill="none" xmlns="http://www.w3.org/2000/svg">
<g clip-path="url(#clip0_39_15963)">
<mask id="mask0_39_15963" style="mask-type:luminance" maskUnits="userSpaceOnUse" x="0" y="0" width="47" height="47">
<path d="M47 0H0V47H47V0Z" fill="white"/>
</mask>
<g mask="url(#mask0_39_15963)">
<path d="M1.04523 23.6383C1.04523 11.2244 11.1087 1.16089 23.5226 1.16089C35.9365 1.16089 46 11.2244 46 23.6383C46 36.0522 35.9365 46.1157 23.5226 46.1157C11.1087 46.1157 1.04523 36.0522 1.04523 23.6383Z" stroke="white"/>
</g>
<path d="M23.1667 11.3333C21.0007 11.3333 18.9235 12.1938 17.392 13.7253C15.8604 15.2569 15 17.3341 15 19.5C15 22.2767 16.3883 24.715 18.5 26.1967V28.8333C18.5 29.1428 18.6229 29.4395 18.8417 29.6583C19.0605 29.8771 19.3572 30 19.6667 30H26.6667C26.9761 30 27.2728 29.8771 27.4916 29.6583C27.7104 29.4395 27.8333 29.1428 27.8333 28.8333V26.1967C29.945 24.715 31.3333 22.2767 31.3333 19.5C31.3333 17.3341 30.4729 15.2569 28.9414 13.7253C27.4098 12.1938 25.3326 11.3333 23.1667 11.3333ZM19.6667 33.5C19.6667 33.8094 19.7896 34.1062 20.0084 34.325C20.2272 34.5438 20.5239 34.6667 20.8333 34.6667H25.5C25.8094 34.6667 26.1062 34.5438 26.325 34.325C26.5438 34.1062 26.6667 33.8094 26.6667 33.5V32.3333H19.6667V33.5Z" fill="white"/>
</g>
<defs>
<clipPath id="clip0_39_15963">
<rect width="47" height="47" fill="white"/>
</clipPath>
</defs>
</svg>
