<svg width="67" height="74" viewBox="0 0 67 74" fill="none" xmlns="http://www.w3.org/2000/svg">
<g clip-path="url(#clip0_29_14235)">
<path d="M0.00217224 36.9802C0.00217224 27.6358 0.00217224 18.2929 0.00217224 8.95147C0.00217224 4.46361 2.9413 0.947363 7.35663 0.116769C7.79364 0.0397109 8.23681 0.00283696 8.68056 0.00661043C21.7522 0.00661043 34.8254 0.00661043 47.9 0.00661043C51.7813 0.00661043 55.2787 2.79141 56.2341 6.54782C56.4548 7.42908 56.3489 8.19799 55.6009 8.77081C54.5748 9.55955 53.1913 9.09688 52.75 7.80141C52.4808 7.01488 52.2116 6.23716 51.6754 5.59824C51.1846 4.98365 50.5567 4.49222 49.8418 4.16322C49.1268 3.83422 48.3447 3.6768 47.5579 3.70353C38.3654 3.71674 29.1714 3.71674 19.9759 3.70353C16.3704 3.70353 12.7627 3.80266 9.16379 3.67268C6.16287 3.56693 3.66946 6.09616 3.6827 9.1806C3.75331 27.7313 3.75331 46.2805 3.6827 64.8282C3.67657 65.5501 3.81384 66.266 4.08654 66.9345C4.35925 67.6031 4.762 68.2111 5.27149 68.7233C5.78098 69.2355 6.3871 69.6417 7.05482 69.9185C7.72253 70.1954 8.43861 70.3373 9.16161 70.3361C21.8758 70.2553 34.5907 70.2553 47.3064 70.3361C50.1904 70.3515 52.878 68.3533 52.8669 64.718C52.8493 59.6618 52.8669 54.6055 52.8669 49.5492C52.8669 48.2383 53.5554 47.4981 54.7138 47.5157C55.0896 47.5048 55.4586 47.6172 55.7642 47.8357C56.0699 48.0541 56.2954 48.3666 56.4063 48.7253C56.5351 49.118 56.5919 49.5307 56.574 49.9436C56.574 54.9162 56.596 59.8909 56.574 64.8657C56.5453 69.554 53.5598 73.1077 49.0231 73.9185C48.5331 73.9917 48.0377 74.0219 47.5425 74.0088C34.69 74.0088 21.8368 74.0088 8.98286 74.0088C3.8504 74.0088 0.0264369 70.1665 0.0220237 65.0243C0.00142918 55.6726 -0.00518296 46.3245 0.00217224 36.9802Z" fill="#583691"/>
<path d="M33.5464 58.4192C33.6722 56.5289 33.745 54.8258 33.9127 53.1316C34.0363 51.889 34.5239 50.7456 35.1506 49.6638C41.8806 38.0296 48.6106 26.3954 55.3406 14.7612C57.1677 11.6063 60.0649 11.0026 63.3836 12.6902C66.9891 14.5211 68.0504 17.9448 65.8792 21.6219C59.2595 32.8382 52.7855 44.1493 46.2871 55.4405C45.3279 57.1803 43.9288 58.6387 42.2293 59.6706C41.2628 60.2478 40.3404 60.9022 39.4027 61.5279C38.1317 62.3717 36.8055 62.581 35.4308 61.8165C34.0562 61.052 33.5067 59.7763 33.5464 58.4192ZM37.2976 57.875C37.2601 58.4324 37.5315 58.3157 37.8316 58.1108C38.6348 57.5798 39.4247 57.0246 40.2456 56.5245C41.365 55.8693 42.2936 54.9337 42.9398 53.8102C45.1816 49.8687 47.4698 45.9515 49.7404 42.0254C52.8781 36.6012 56.0195 31.1792 59.1646 25.7594C59.4956 25.1888 59.489 24.8561 58.8623 24.5301C57.8627 24.0079 56.8764 23.4483 55.932 22.8402C55.3362 22.4591 55.0494 22.6001 54.725 23.1839C49.2939 32.6164 43.8504 42.0401 38.3943 51.455C38.0456 52.0564 37.7146 52.6777 37.644 53.3607C37.4874 54.8611 37.4101 56.3703 37.3108 57.875H37.2976ZM60.3032 15.4244C59.5221 15.4817 59.0455 15.7637 58.7277 16.3056C58.2666 17.0856 57.8296 17.8787 57.3508 18.6476C57.0882 19.0684 57.1456 19.3086 57.5913 19.5597C58.7211 20.181 59.8376 20.8309 60.9453 21.4941C61.3028 21.7144 61.5234 21.6968 61.7352 21.3068C62.1766 20.4873 62.6598 19.6875 63.1165 18.8833C63.4343 18.3193 63.5446 17.698 63.1386 17.1715C62.395 16.1867 61.3028 15.746 60.3076 15.4244H60.3032Z" fill="#583691"/>
<path d="M27.4848 28.3019C22.5627 28.3019 17.6406 28.3019 12.7185 28.3019C11.5005 28.3019 10.6973 27.6696 10.587 26.6782C10.525 26.1954 10.6572 25.7078 10.9545 25.3221C11.2519 24.9364 11.6902 24.6841 12.1735 24.6204C12.5019 24.5877 12.8323 24.5781 13.162 24.5918H41.7878C42.0636 24.5918 42.3394 24.5918 42.613 24.605C43.6501 24.6909 44.3783 25.4356 44.3783 26.4248C44.3783 27.4515 43.6589 28.216 42.5799 28.2975C42.3063 28.3173 42.0305 28.2975 41.7569 28.2975L27.4848 28.3019Z" fill="#583691"/>
<path d="M31.7723 17.7465H18.3939C18.0914 17.7576 17.7884 17.7487 17.4871 17.7201C17.0405 17.6642 16.6298 17.4474 16.332 17.1105C16.0342 16.7736 15.8699 16.3397 15.8699 15.8903C15.8699 15.441 16.0342 15.0071 16.332 14.6702C16.6298 14.3333 17.0405 14.1165 17.4871 14.0606C17.8157 14.0308 18.1459 14.022 18.4756 14.0342H45.0669C45.3966 14.022 45.7268 14.0309 46.0554 14.0606C46.5019 14.1165 46.9127 14.3333 47.2105 14.6702C47.5082 15.0071 47.6725 15.441 47.6725 15.8903C47.6725 16.3397 47.5082 16.7736 47.2105 17.1105C46.9127 17.4474 46.5019 17.6642 46.0554 17.7201C45.754 17.7488 45.451 17.7576 45.1485 17.7465H31.7723Z" fill="#583691"/>
<path d="M24.4245 38.8573H13.1159C12.8141 38.8683 12.5119 38.8595 12.2112 38.8308C11.7625 38.7797 11.348 38.5662 11.0463 38.2306C10.7446 37.895 10.5765 37.4607 10.5738 37.0098C10.571 36.5588 10.7339 36.1225 11.0316 35.7834C11.3292 35.4442 11.7411 35.2257 12.1891 35.1692C12.4089 35.1448 12.6301 35.1359 12.8511 35.1427C20.58 35.1427 28.3103 35.1427 36.0421 35.1427C37.2402 35.1427 38.0279 35.634 38.2354 36.4955C38.5487 37.7667 37.7058 38.8264 36.309 38.8463C34.3849 38.8727 32.4586 38.8463 30.5323 38.8463L24.4245 38.8573Z" fill="#583691"/>
<path d="M21.4015 49.4104C18.5153 49.4104 15.6291 49.4104 12.7429 49.4104C12.2067 49.4104 11.6992 49.3399 11.2711 48.9896C10.995 48.771 10.7875 48.4779 10.6731 48.145C10.5588 47.8122 10.5425 47.4536 10.6261 47.1117C10.7097 46.7699 10.8898 46.4592 11.1449 46.2165C11.4 45.9737 11.7195 45.8091 12.0655 45.7422C12.3088 45.7006 12.5558 45.6844 12.8025 45.6937H29.9519C31.1346 45.6937 31.8694 46.1343 32.1187 46.9671C32.5115 48.2692 31.6222 49.3906 30.1328 49.4016C27.2268 49.4237 24.3141 49.4104 21.4015 49.4104Z" fill="#583691"/>
<path d="M20.3819 59.9658C17.851 59.9658 15.3068 59.9658 12.7869 59.9658C11.3946 59.9658 10.5627 59.241 10.5804 58.0777C10.598 56.9563 11.4189 56.2579 12.7715 56.2557C17.8613 56.2557 22.9525 56.2557 28.0453 56.2557C29.3957 56.2557 30.2055 56.9629 30.2099 58.0997C30.2143 59.2366 29.4045 59.957 28.0629 59.9636C25.5011 59.9724 22.9415 59.9658 20.3819 59.9658Z" fill="#583691"/>
</g>
<defs>
<clipPath id="clip0_29_14235">
<rect width="67" height="74" fill="white"/>
</clipPath>
</defs>
</svg>
