<svg width="25" height="25" viewBox="0 0 25 25" fill="none" xmlns="http://www.w3.org/2000/svg">
<path d="M4.55576 20.095C4.22243 20.2283 3.90576 20.199 3.60576 20.007C3.30576 19.8156 3.15576 19.5366 3.15576 19.17V15.445C3.15576 15.2116 3.22243 15.0033 3.35576 14.82C3.4891 14.6366 3.67243 14.52 3.90576 14.47L11.1558 12.67L3.90576 10.87C3.67243 10.82 3.4891 10.7033 3.35576 10.52C3.22243 10.3366 3.15576 10.1283 3.15576 9.89498V6.16998C3.15576 5.80331 3.30576 5.52398 3.60576 5.33198C3.90576 5.14064 4.22243 5.11164 4.55576 5.24498L19.9558 11.745C20.3724 11.9283 20.5808 12.2366 20.5808 12.67C20.5808 13.1033 20.3724 13.4116 19.9558 13.595L4.55576 20.095Z" fill="white"/>
</svg>
