<svg width="415" height="415" viewBox="0 0 415 415" fill="none" xmlns="http://www.w3.org/2000/svg">
<circle cx="207.5" cy="207.5" r="207.5" fill="#FFC118"/>
<mask id="mask0_25_6347" style="mask-type:alpha" maskUnits="userSpaceOnUse" x="0" y="0" width="415" height="415">
<circle cx="207.5" cy="207.5" r="207.5" fill="#D9D9D9"/>
</mask>
<g mask="url(#mask0_25_6347)">
<g clip-path="url(#clip0_25_6347)">
<g clip-path="url(#clip1_25_6347)">
<path d="M274.015 360.35C282.869 399.123 303.697 474.179 317.804 478.051C318.301 478.198 318.823 478.244 319.339 478.188C333.429 476.584 336.227 407.38 336.227 407.38L334.64 258.121L341.463 255.306C338.632 234.512 311.322 208.857 290.101 188.506C278.468 177.367 268.659 167.832 265.691 161.572C257.281 143.899 264.872 320.11 274.015 360.35Z" fill="#73407D"/>
<g style="mix-blend-mode:multiply" opacity="0.3">
<path d="M274.015 360.35C282.869 399.123 303.697 474.179 317.804 478.051C317.156 432.301 314.494 367.071 304.686 348.819C290.937 323.232 275.346 206.247 290.05 188.472C278.416 177.333 268.608 167.798 265.64 161.537C257.281 143.899 264.872 320.11 274.015 360.35Z" fill="#664A75"/>
</g>
<path d="M304.328 245.293C299.944 324.136 303.134 479.433 320.669 478.222C338.205 477.011 340.218 357.109 340.61 355.523C341.003 353.936 338.615 259.775 338.615 259.775C338.615 259.775 317.48 233.216 312.635 233.625C307.791 234.034 304.328 245.293 304.328 245.293Z" fill="#27213D"/>
<path d="M299.159 245.6C301.019 246.146 329.181 256.142 329.181 256.142L327.595 242.205C327.595 242.205 316.149 229.326 313.949 228.252C311.748 227.177 297.47 232.278 297.47 232.278L299.159 245.6Z" fill="#EBA87F"/>
<path d="M314.034 228.252C325.975 243.809 334.759 393.716 331.57 434.775C328.38 475.834 319.339 478.222 319.339 478.222C319.339 478.222 329.454 477.147 337.421 439.875C345.387 402.603 347.4 285.516 341.412 255.34C335.425 225.164 314.034 228.252 314.034 228.252Z" fill="#73407D"/>
<path d="M304.55 222.179C299.432 226.273 297.351 218.767 297.317 213.172C297.283 207.577 287.884 201.982 285.223 204.456C282.562 206.929 293.223 216.396 292.421 221.514C291.619 226.631 292.592 239.868 299.159 245.617C305.727 251.366 314.119 246.709 315.074 246.248C316.03 245.788 325.565 252.184 329.506 251.178C333.446 250.172 332.917 247.152 332.32 245.941C331.723 244.73 314.494 238.794 314.409 236.764C314.324 234.734 337.233 230.196 337.881 226.529C338.529 222.861 336.926 220.166 334.777 219.996C332.627 219.825 313.914 230.094 311.1 228.525C308.285 226.955 318.367 205.974 317.343 203.807C316.32 201.641 310.145 199.85 308.678 202.938C307.211 206.025 306.477 220.661 304.55 222.179Z" fill="#FFC393"/>
<path d="M140.348 360.35C131.495 399.123 110.684 474.179 96.5595 478.051C96.0618 478.198 95.54 478.244 95.0243 478.188C80.9343 476.584 78.1367 407.379 78.1367 407.379L79.7402 258.121L72.9169 255.306C75.7486 234.546 103.059 208.891 124.279 188.592C135.913 177.453 145.721 167.917 148.689 161.657C157.065 143.899 149.474 320.11 140.348 360.35Z" fill="#73407D"/>
<g style="mix-blend-mode:multiply" opacity="0.3">
<path d="M140.348 360.35C131.495 399.123 110.684 474.179 96.5595 478.051C97.2077 432.301 99.8688 367.071 109.677 348.819C123.426 323.232 139.034 206.247 124.313 188.472C135.947 177.333 145.755 167.798 148.723 161.537C157.065 143.899 149.474 320.11 140.348 360.35Z" fill="#664A75"/>
</g>
<path d="M300.694 651.021C298.989 653.75 294.809 655.064 289.385 655.695C277.444 657.111 259.738 655.166 252.317 657.571C247.758 658.867 243.095 659.769 238.381 660.266C218.145 662.535 197.696 662.065 177.586 658.868C174.737 658.407 171.854 658.032 169.057 657.742C149.303 655.695 129.362 657.179 117.882 656.224C112.219 655.763 108.62 654.688 108.108 652.334C106.402 644.488 110.701 612.674 114.931 559.948C116.637 538.591 121.533 495.672 127.179 444.703C135.213 371.847 144.834 282.65 149.133 216.43C149.252 214.554 149.372 212.678 149.491 210.852L265.691 214.264C265.691 214.264 266.373 227.569 267.516 248.21C270.501 302.369 276.54 406.953 281.163 453.965C282.033 462.682 283.125 472.439 284.319 482.862C292.165 550.02 305.215 643.481 300.694 651.021Z" fill="#73407D"/>
<g style="mix-blend-mode:multiply" opacity="0.4">
<path d="M284.438 482.93C277.529 447.244 269.7 412.087 266.595 417.427C260.557 427.883 243.277 525.507 228.59 565.611C213.903 605.715 189.714 598.738 187.121 591.761C184.528 584.784 204.401 556.894 204.401 556.894L190.567 529.004C190.567 529.004 150.839 360.777 142.19 378.21C138.386 385.886 132.552 414.8 127.23 444.737C135.264 371.881 144.885 282.684 149.184 216.465C170.575 221.855 250.219 243.587 267.567 248.312C270.553 302.455 276.591 407.055 281.214 454.068C282.169 462.75 283.244 472.507 284.438 482.93Z" fill="#664A75"/>
</g>
<path d="M130.113 107.548C131.819 122.372 145.243 138.935 145.243 138.935C145.243 138.935 138.761 140.641 139.188 144.599C139.614 148.556 146.523 154.629 146.523 154.629L266.186 152.923C266.186 152.923 275.687 145.963 276.131 143.336C276.574 140.709 271.798 138.987 271.798 138.987C271.798 138.987 286.485 118.056 286.058 114.15C285.632 110.244 269.205 92.793 269.205 92.793L130.113 107.548Z" fill="#522E59"/>
<path d="M266.169 285.141C265.725 292.322 264.65 301.943 263.132 313.27C259.942 337.066 254.74 368.47 248.855 400.931C236.129 471.092 220.333 546.165 215.199 560.152C206.55 583.675 180.213 598.925 173.731 588.469C167.248 578.012 149.969 541.832 159.896 539.222C169.824 536.612 181.066 544.885 181.066 544.885C181.066 544.885 170.268 547.939 167.675 550.122C165.082 552.306 165.526 559.265 166.396 564.946C167.266 570.626 183.658 571.479 190.14 565.372C196.623 559.265 191.437 543.589 187.121 509.08C182.942 475.766 156.502 381.144 150.89 311.547C150.787 310.37 150.702 309.193 150.617 308.016C150.531 306.839 150.463 305.781 150.412 304.604C146.079 234.444 145.295 110.244 145.295 110.244C145.295 110.244 142.258 93.1854 153.073 69.6963C163.888 46.2072 198.345 20.5859 206.55 18.8459C206.55 18.8459 219.088 22.2576 235.072 36.2794C251.055 50.3012 269.99 79.4194 273.077 102.533C261.853 136.087 269.631 230.231 266.169 285.141Z" fill="#FFF0DD"/>
<g style="mix-blend-mode:multiply" opacity="0.9">
<path d="M263.166 313.27C259.977 337.066 254.774 368.47 248.889 400.931C236.163 471.092 220.368 546.165 215.233 560.152C206.585 583.675 180.247 598.925 173.765 588.469C167.283 578.012 150.003 541.832 159.931 539.222C169.858 536.612 181.1 544.885 181.1 544.885C181.1 544.885 170.302 547.939 167.709 550.122C165.116 552.305 165.56 559.265 166.43 564.946C167.3 570.626 183.693 571.479 190.175 565.372C196.657 559.265 191.471 543.589 187.155 509.08C182.976 475.766 156.536 381.144 150.924 311.547C150.821 310.37 150.736 309.193 150.651 308.016C159.043 340.614 175.88 387.882 204.538 397.69C232.462 407.294 251.84 354.516 263.166 313.27Z" fill="#F1DEC1"/>
</g>
<g style="mix-blend-mode:multiply" opacity="0.3">
<path d="M266.169 287.529C264.77 309.824 257.537 355.42 248.855 403.337C255.132 335.616 263.047 155.789 254.791 154.748C245.579 153.588 238.671 157.648 217.928 164.625C197.186 171.602 179.923 144.292 171.871 157.648C164.297 170.203 150.634 234.512 150.907 314.02C150.719 311.7 150.566 309.397 150.412 307.197C146.096 237.02 145.295 112.819 145.295 112.819C144.889 109.938 144.774 107.024 144.953 104.12C145.579 93.0976 148.331 82.3006 153.056 72.3232C163.786 48.7147 198.345 23.0081 206.55 21.2511C206.55 21.2511 219.088 24.748 235.072 38.6846C251.055 52.6211 269.99 81.8417 273.077 105.007C261.853 138.492 269.631 232.636 266.169 287.529Z" fill="#F1DEC1"/>
</g>
<path d="M166.174 68.5534C163.444 75.3766 167.248 112.563 173.304 123.02C179.36 133.477 239.609 127.387 242.407 123.464C245.204 119.54 244.795 70.2933 242.85 64.4082C240.906 58.5232 217.604 44.672 208.103 45.3031C198.601 45.9343 167.47 65.2782 166.174 68.5534Z" fill="#FFC393"/>
<path d="M192.341 130.184C202.985 147.123 210.286 146.032 219.259 127.455C216.069 121.434 206.107 118.926 206.107 118.926L192.341 130.184Z" fill="#EBA87F"/>
<path d="M218.508 124.999C217.225 127.785 215.578 130.389 213.612 132.743C211.792 135.117 209.227 136.811 206.329 137.554C202.781 138.236 199.761 135.319 197.612 132.18C196.168 130.013 194.962 127.697 194.013 125.272L205.953 116.231L218.508 124.999Z" fill="#82172A"/>
<path d="M178.37 87.5562C180.741 89.9614 202.115 81.6711 202.985 79.7094C203.855 77.7477 202.764 72.3062 199.574 69.031C196.384 65.7559 177.074 76.2296 176.426 77.7136C175.778 79.1977 177.5 86.6862 178.37 87.5562Z" fill="#FFF0DD"/>
<path d="M211.787 81.4835C211.583 84.0252 229.391 91.8207 233.366 91.7184C237.34 91.616 239.541 80.2724 238.859 79.2489C238.176 78.2254 223.387 71.3339 215.677 71.6239C213.937 71.6751 211.992 79.5218 211.787 81.4835Z" fill="#FFF0DD"/>
<path d="M205.698 122.372C202.026 118.375 197.293 115.505 192.051 114.099C189.509 113.212 179.889 119.318 176.886 117.135C173.884 114.952 174.089 106.712 174.089 106.712C174.089 106.712 179.206 109.322 179.854 106.286C180.503 103.25 172.246 101.697 169.944 106.491C167.641 111.284 164.826 118.261 168.784 126.551C172.741 134.841 191.846 138.492 205.698 122.372Z" fill="#FFF0DD"/>
<path d="M200.938 106.03C200.938 106.03 193.16 107.327 191.659 109.954C190.158 112.58 196.776 125.425 208.29 122.798C212.828 117.135 200.938 106.03 200.938 106.03Z" fill="#FFC393"/>
<path d="M203.326 89.9102C203.105 90.5584 203.531 101.015 200.938 103.847C198.346 106.678 191.659 107.258 190.362 109.732C189.066 112.205 192.068 129.127 213.681 121.502C202.883 123.685 193.586 120.82 192.085 111.045C191.659 108.214 200.938 108.214 202.883 104.495C204.828 100.776 203.326 89.9102 203.326 89.9102Z" fill="#E0875E"/>
<path d="M205.902 122.372C210.934 116.709 219.907 113.212 222.534 112.342C225.161 111.472 232.684 119.318 235.788 117.135C238.893 114.952 238.654 106.712 238.654 106.712C238.654 106.712 233.4 109.322 232.684 106.286C231.967 103.25 240.564 101.697 242.918 106.491C245.272 111.284 248.172 118.261 244.113 126.551C240.053 134.841 220.248 138.492 205.902 122.372Z" fill="#FFF0DD"/>
<path d="M223.455 94.6182C223.455 97.6205 221.749 100.043 219.668 100.043C217.587 100.043 215.864 97.6205 215.864 94.6182C215.864 91.616 217.57 89.1938 219.668 89.1938C221.766 89.1938 223.455 91.616 223.455 94.6182Z" fill="#272F44"/>
<path d="M197.527 94.6182C197.527 97.6205 195.821 100.043 193.74 100.043C191.659 100.043 189.953 97.6205 189.953 94.6182C189.953 91.616 191.659 89.1938 193.74 89.1938C195.821 89.1938 197.527 91.616 197.527 94.6182Z" fill="#272F44"/>
<g style="mix-blend-mode:multiply" opacity="0.3">
<path d="M273.077 105.007C273.077 105.007 217.928 50.0794 204.111 52.9793C190.294 55.8792 158.617 74.5749 145.226 112.785C145.226 112.785 145.039 109.527 144.885 104.086C145.511 93.0635 148.263 82.2665 152.988 72.2891C163.786 48.7147 198.345 23.0081 206.55 21.2511C206.55 21.2511 219.088 24.748 235.072 38.6846C251.055 52.6211 269.99 81.8417 273.077 105.007Z" fill="#C15A45"/>
</g>
<path d="M145.226 112.785C144.783 114.099 130.096 107.548 130.096 107.548C130.096 107.548 141.764 54.3781 204.828 13.4214C253.648 33.0213 286.041 114.065 286.041 114.065L273.077 105.007C273.077 105.007 268.284 65.7729 207.42 25.618C169.841 44.3649 155.581 73.125 145.226 112.785Z" fill="#522E59"/>
<path d="M110.001 245.293C114.385 324.136 111.195 479.433 93.6596 478.222C76.1238 477.011 74.1109 357.109 73.7186 355.523C73.3263 353.936 75.7144 259.775 75.7144 259.775C75.7144 259.775 96.8494 233.216 101.626 233.625C106.402 234.034 110.001 245.293 110.001 245.293Z" fill="#27213D"/>
<path d="M115.17 245.6C113.311 246.146 85.1476 256.142 85.1476 256.142L86.7511 242.205C86.7511 242.205 98.18 229.326 100.295 228.252C102.41 227.177 116.79 232.278 116.79 232.278L115.17 245.6Z" fill="#EBA87F"/>
<path d="M100.295 228.252C88.3545 243.809 79.5696 393.716 82.7594 434.775C85.9493 475.834 94.9901 478.222 94.9901 478.222C94.9901 478.222 84.8746 477.147 76.9085 439.875C68.9423 402.603 66.9977 285.516 72.9169 255.34C78.8361 225.164 100.295 228.252 100.295 228.252Z" fill="#73407D"/>
<path d="M109.78 222.179C114.897 226.273 116.978 218.767 117.012 213.172C117.046 207.577 126.445 201.982 129.106 204.456C131.768 206.929 121.106 216.396 121.908 221.514C122.71 226.631 121.737 239.868 115.085 245.617C108.432 251.366 100.125 246.709 99.1694 246.248C98.2141 245.788 88.6786 252.184 84.7382 251.178C80.7978 250.172 81.3266 247.152 81.9236 245.941C82.5206 244.73 99.7494 238.794 99.8347 236.764C99.92 234.734 77.0109 230.196 76.3626 226.529C75.7144 222.861 77.335 220.166 79.4672 219.996C81.5995 219.825 100.329 230.094 103.144 228.525C105.959 226.955 95.9966 205.974 97.003 203.807C98.0094 201.641 104.184 199.85 105.669 202.938C107.153 206.025 107.937 220.661 109.78 222.179Z" fill="#FFC393"/>
<path style="mix-blend-mode:screen" opacity="0.9" d="M210.016 339.94C254.357 339.94 290.302 303.694 290.302 258.982C290.302 214.271 254.357 178.025 210.016 178.025C165.675 178.025 129.73 214.271 129.73 258.982C129.73 303.694 165.675 339.94 210.016 339.94Z" fill="url(#paint0_radial_25_6347)"/>
<path d="M153.858 283.367C152.763 273.327 154.42 263.179 158.651 254.01C176.34 217.096 235.174 212.507 255.354 251.792C258.541 258.187 260.606 265.082 261.461 272.177C270.297 338.089 160.562 356.478 153.858 283.367Z" fill="url(#paint1_radial_25_6347)"/>
<g opacity="0.5">
<path d="M204.674 288.041C202.754 288.105 200.877 288.625 199.198 289.559C197.48 290.502 196.043 291.885 195.036 293.567C194.036 295.301 193.611 297.308 193.825 299.299C194.008 301.323 194.896 303.218 196.333 304.655C197.075 305.358 197.952 305.903 198.911 306.258C199.869 306.612 200.89 306.769 201.911 306.719C202.951 306.702 203.974 306.456 204.909 305.999C205.843 305.542 206.666 304.885 207.318 304.075C207.476 303.859 207.542 303.59 207.504 303.326C207.466 303.061 207.326 302.822 207.113 302.659C206.9 302.503 206.634 302.437 206.372 302.475C206.11 302.513 205.874 302.653 205.715 302.864C205.245 303.453 204.652 303.931 203.977 304.264C203.302 304.598 202.561 304.778 201.808 304.792C201.043 304.835 200.276 304.726 199.553 304.472C198.83 304.217 198.164 303.821 197.595 303.308C196.491 302.142 195.791 300.651 195.601 299.056C195.41 297.461 195.739 295.848 196.537 294.454C197.4 293.044 198.6 291.87 200.03 291.04C201.459 290.209 203.073 289.747 204.725 289.695C206.408 289.673 208.078 289.994 209.633 290.639C211.187 291.284 212.594 292.24 213.766 293.448C216.254 295.83 217.7 299.097 217.792 302.54C217.781 306.021 216.576 309.392 214.38 312.093C212.26 314.856 209.295 316.851 205.936 317.773C202.568 318.646 199.022 318.558 195.701 317.517C192.341 316.501 189.294 314.646 186.848 312.127C184.396 309.567 182.517 306.514 181.338 303.171C180.133 299.82 179.554 296.275 179.633 292.715C179.658 289.148 180.536 285.639 182.191 282.48C183.89 279.341 186.628 276.892 189.936 275.554C193.229 274.21 196.818 273.757 200.341 274.241C203.874 274.752 207.268 275.971 210.32 277.823C213.381 279.681 216.205 281.903 218.73 284.441C216.228 281.869 213.421 279.612 210.371 277.72C207.326 275.813 203.925 274.542 200.375 273.985C196.799 273.453 193.146 273.871 189.782 275.196C188.104 275.877 186.548 276.828 185.177 278.01C183.822 279.224 182.67 280.646 181.765 282.224C180.039 285.45 179.104 289.039 179.036 292.697C178.915 296.343 179.465 299.98 180.656 303.427C181.849 306.889 183.755 310.062 186.251 312.741C188.782 315.398 191.945 317.37 195.446 318.472C198.952 319.625 202.714 319.761 206.295 318.865C209.904 317.908 213.106 315.808 215.421 312.877C217.821 309.957 219.151 306.303 219.191 302.523C219.131 298.7 217.568 295.054 214.841 292.373C213.53 290.997 211.953 289.903 210.205 289.158C208.456 288.413 206.574 288.032 204.674 288.041Z" fill="white"/>
<path d="M238.517 277.789C237.915 279.2 237.184 280.554 236.334 281.831C232.866 286.972 227.705 290.732 221.749 292.459C227.758 290.806 232.993 287.093 236.539 281.968C238.32 279.393 239.584 276.496 240.257 273.439C240.562 271.91 240.739 270.358 240.786 268.799C240.801 267.24 240.686 265.682 240.445 264.142C240.166 262.603 239.755 261.091 239.217 259.622C238.65 258.158 237.941 256.752 237.102 255.425C235.408 252.776 233.133 250.548 230.449 248.909C227.788 247.235 224.79 246.172 221.669 245.798C218.548 245.423 215.382 245.746 212.401 246.743C209.348 247.759 206.7 249.726 204.845 252.355C203.095 255.136 202.484 258.483 203.139 261.703C203.409 263.306 203.989 264.841 204.845 266.223C205.729 267.588 206.857 268.779 208.171 269.737C210.822 271.646 214.055 272.569 217.314 272.347C218.952 272.244 220.553 271.815 222.022 271.085C223.527 270.347 224.827 269.252 225.809 267.895C226.8 266.488 227.357 264.822 227.413 263.102C227.49 261.335 226.933 259.599 225.843 258.206C225.276 257.521 224.578 256.955 223.791 256.542C223.003 256.129 222.141 255.877 221.255 255.801C220.344 255.691 219.42 255.803 218.562 256.126C217.704 256.45 216.936 256.976 216.325 257.66C215.704 258.381 215.296 259.262 215.148 260.202C214.966 261.22 215.179 262.269 215.745 263.136C216.05 263.556 216.437 263.91 216.883 264.177C217.328 264.443 217.823 264.617 218.338 264.688C218.87 264.761 219.412 264.714 219.924 264.552C220.473 264.368 220.959 264.03 221.323 263.579C221.48 263.363 221.547 263.094 221.509 262.83C221.471 262.565 221.33 262.326 221.118 262.163C221.012 262.085 220.892 262.028 220.764 261.996C220.635 261.964 220.502 261.959 220.372 261.98C220.242 262 220.117 262.047 220.005 262.116C219.893 262.186 219.796 262.277 219.719 262.385C219.574 262.542 219.392 262.659 219.188 262.724C218.985 262.79 218.769 262.803 218.559 262.76C218.31 262.737 218.068 262.663 217.848 262.543C217.628 262.422 217.434 262.259 217.28 262.061C217.022 261.56 216.925 260.991 217.001 260.433C217.077 259.875 217.324 259.353 217.706 258.939C218.129 258.466 218.661 258.102 219.255 257.88C219.849 257.657 220.488 257.581 221.118 257.66C222.433 257.768 223.655 258.379 224.53 259.366C225.367 260.434 225.802 261.762 225.758 263.119C225.738 264.507 225.311 265.86 224.53 267.008C223.667 268.143 222.57 269.077 221.313 269.749C220.056 270.42 218.668 270.812 217.246 270.897C214.324 271.127 211.412 270.338 209.007 268.663C207.812 267.817 206.783 266.759 205.97 265.541C204.777 263.68 204.129 261.522 204.102 259.311C204.075 257.101 204.669 254.927 205.817 253.037C207.509 250.573 209.949 248.719 212.777 247.749C215.622 246.754 218.654 246.404 221.652 246.726C224.649 247.047 227.538 248.032 230.108 249.609C231.4 250.389 232.606 251.304 233.707 252.338C234.792 253.374 235.77 254.517 236.624 255.75C237.451 257.027 238.153 258.381 238.722 259.792C239.272 261.219 239.694 262.692 239.984 264.193C240.576 267.212 240.576 270.317 239.984 273.336C239.638 274.864 239.147 276.355 238.517 277.789Z" fill="white"/>
<path d="M242.782 292.936C241.519 291.855 239.986 291.136 238.347 290.855C236.714 290.627 235.05 290.913 233.588 291.674C232.154 292.448 230.887 293.497 229.86 294.762C228.832 296.026 228.064 297.481 227.6 299.043C228.094 297.509 228.887 296.088 229.932 294.862C230.977 293.635 232.254 292.627 233.69 291.896C235.12 291.204 236.729 290.971 238.296 291.23C239.851 291.53 241.292 292.256 242.458 293.329C243.651 294.353 244.527 295.696 244.982 297.201C245.391 298.721 245.443 300.314 245.136 301.858C244.826 303.413 244.316 304.921 243.618 306.344C242.95 307.779 242.132 309.14 241.178 310.404C240.256 311.637 239.095 312.672 237.764 313.449C236.434 314.225 234.962 314.727 233.434 314.924C231.97 315.117 230.483 314.804 229.221 314.037C228.648 313.624 228.173 313.091 227.829 312.475C227.484 311.86 227.278 311.176 227.225 310.472C227.066 309.046 227.456 307.612 228.317 306.463C228.681 305.912 229.197 305.479 229.802 305.215C230.408 304.952 231.077 304.87 231.728 304.979C232.337 305.104 232.895 305.407 233.332 305.849C233.52 306.041 233.663 306.272 233.751 306.526C233.84 306.779 233.871 307.049 233.843 307.316C233.748 307.874 233.443 308.375 232.991 308.715C232.813 308.868 232.598 308.973 232.368 309.018C232.137 309.062 231.899 309.046 231.677 308.971C231.554 308.925 231.423 308.904 231.292 308.909C231.16 308.914 231.031 308.946 230.912 309.001C230.793 309.057 230.686 309.135 230.598 309.233C230.51 309.33 230.441 309.444 230.398 309.568C230.313 309.819 230.328 310.094 230.439 310.335C230.55 310.576 230.749 310.765 230.995 310.864C231.542 311.06 232.134 311.096 232.701 310.967C233.24 310.85 233.744 310.604 234.168 310.25C235.013 309.588 235.564 308.62 235.703 307.555C235.771 306.977 235.695 306.391 235.481 305.849C235.291 305.357 235 304.91 234.628 304.536C233.93 303.821 233.021 303.349 232.035 303.188C231.062 303.017 230.061 303.155 229.17 303.581C228.326 304.008 227.6 304.634 227.054 305.406C226.007 306.893 225.55 308.718 225.775 310.523C225.873 311.434 226.169 312.313 226.644 313.097C227.118 313.881 227.759 314.552 228.521 315.061C230.066 315.961 231.87 316.31 233.639 316.05C235.311 315.8 236.916 315.219 238.36 314.34C239.804 313.461 241.058 312.303 242.048 310.933C243.008 309.585 243.83 308.145 244.505 306.634C245.195 305.124 245.682 303.529 245.955 301.892C246.243 300.237 246.144 298.538 245.665 296.928C245.106 295.349 244.105 293.964 242.782 292.936Z" fill="white"/>
<path d="M185.944 272.296C187.688 272.128 189.333 271.404 190.635 270.232C191.915 269.095 192.914 267.676 193.552 266.087C194.685 262.931 194.904 259.519 194.183 256.244C193.737 252.975 192.635 249.83 190.942 246.999C190.026 245.577 188.772 244.405 187.292 243.587C186.548 243.182 185.749 242.889 184.921 242.717C184.108 242.547 183.277 242.479 182.447 242.512C179.118 242.67 175.973 244.084 173.645 246.47C171.413 248.839 169.674 251.628 168.528 254.675C167.299 257.67 166.346 260.77 165.679 263.937C164.359 270.281 164.185 276.809 165.167 283.213C165.654 286.401 166.436 289.536 167.504 292.578C168.016 294.105 168.697 295.569 169.534 296.945C170.374 298.345 171.546 299.517 172.946 300.357C171.592 299.498 170.464 298.328 169.654 296.945C168.838 295.561 168.18 294.091 167.692 292.561C166.663 289.515 165.92 286.38 165.474 283.196C164.129 273.62 165.403 263.858 169.159 254.948C170.335 252.007 172.073 249.325 174.276 247.05C176.484 244.828 179.454 243.529 182.584 243.417C183.347 243.402 184.109 243.482 184.852 243.655C185.594 243.813 186.308 244.083 186.968 244.457C188.296 245.211 189.415 246.284 190.226 247.579C191.808 250.303 192.818 253.321 193.194 256.449C193.845 259.504 193.614 262.68 192.529 265.609C191.95 267.009 191.05 268.254 189.902 269.243C188.803 270.215 187.423 270.813 185.961 270.948C184.477 270.976 183.009 270.632 181.692 269.946C180.375 269.261 179.251 268.257 178.422 267.025C177.539 265.811 176.945 264.412 176.684 262.934C176.424 261.456 176.505 259.938 176.92 258.496C177.296 257.105 178.102 255.869 179.223 254.965C180.346 254.089 181.723 253.604 183.147 253.583C183.815 253.561 184.481 253.691 185.092 253.963C185.704 254.235 186.246 254.641 186.678 255.153C187.105 255.677 187.418 256.284 187.597 256.936C187.777 257.588 187.818 258.271 187.718 258.939C187.623 259.564 187.364 260.153 186.968 260.645C186.592 261.111 186.078 261.445 185.501 261.6C185.248 261.659 184.986 261.659 184.733 261.6C184.515 261.553 184.314 261.447 184.153 261.293C184.004 261.166 183.893 261 183.832 260.813C183.772 260.626 183.765 260.426 183.812 260.236C183.824 260.203 183.824 260.167 183.812 260.133C183.916 259.889 183.921 259.613 183.826 259.364C183.73 259.116 183.542 258.915 183.3 258.803C183.179 258.75 183.049 258.721 182.917 258.719C182.785 258.717 182.654 258.741 182.532 258.791C182.41 258.84 182.298 258.913 182.205 259.006C182.111 259.099 182.037 259.21 181.987 259.332V259.434C181.766 260.04 181.766 260.704 181.987 261.311C182.155 261.86 182.467 262.355 182.891 262.743C183.318 263.145 183.85 263.418 184.426 263.528C184.955 263.639 185.501 263.639 186.029 263.528C186.983 263.243 187.834 262.687 188.476 261.926C189.118 261.166 189.525 260.235 189.646 259.246C189.769 258.317 189.699 257.373 189.441 256.472C189.182 255.571 188.741 254.733 188.145 254.01C187.536 253.275 186.765 252.691 185.893 252.304C185.037 251.958 184.12 251.79 183.198 251.809C181.393 251.84 179.651 252.477 178.251 253.617C176.876 254.754 175.891 256.293 175.436 258.018C174.974 259.685 174.904 261.437 175.232 263.136C175.531 264.84 176.233 266.448 177.279 267.827C178.298 269.211 179.615 270.348 181.134 271.153C182.598 271.98 184.265 272.376 185.944 272.296Z" fill="white"/>
<path d="M254.262 277.021C254.141 273.575 253.695 270.148 252.932 266.786C252.149 263.409 251.005 260.127 249.52 256.995C248.024 253.885 246.224 250.931 244.147 248.176C242.013 245.465 239.65 242.943 237.085 240.636C234.476 238.396 231.673 236.392 228.709 234.649C227.208 233.83 225.707 232.943 224.137 232.278C222.56 231.609 220.942 231.039 219.293 230.572C217.615 230.097 215.904 229.743 214.175 229.514C213.323 229.361 212.47 229.326 211.617 229.241C210.764 229.156 209.911 229.156 209.024 229.241C205.562 229.278 202.137 229.961 198.925 231.254C198.141 231.612 197.339 231.936 196.571 232.38C195.81 232.825 195.09 233.339 194.422 233.915C192.999 235.064 192.036 236.687 191.71 238.487C191.602 239.429 191.75 240.384 192.136 241.25C192.523 242.089 193.109 242.821 193.842 243.382C195.333 244.447 197.128 245.003 198.96 244.969C200.818 244.965 202.621 244.334 204.077 243.178C204.852 242.543 205.44 241.709 205.777 240.765C206.113 239.821 206.186 238.804 205.988 237.821C205.75 236.794 205.143 235.889 204.282 235.28C203.836 234.959 203.328 234.734 202.791 234.62C202.253 234.505 201.698 234.504 201.16 234.614C200.599 234.761 200.081 235.041 199.651 235.43C199.22 235.819 198.889 236.306 198.687 236.849C198.472 237.391 198.385 237.974 198.431 238.555C198.49 239.18 198.733 239.774 199.13 240.261C199.221 240.355 199.329 240.429 199.45 240.48C199.57 240.531 199.699 240.558 199.83 240.558C199.96 240.558 200.089 240.531 200.209 240.48C200.33 240.429 200.438 240.355 200.529 240.261C200.715 240.072 200.82 239.818 200.82 239.553C200.82 239.288 200.715 239.033 200.529 238.845C200.368 238.641 200.264 238.397 200.228 238.139C200.192 237.881 200.225 237.619 200.324 237.378C200.41 237.106 200.557 236.858 200.756 236.654C200.954 236.449 201.198 236.294 201.467 236.201C202.106 236.092 202.763 236.224 203.311 236.57C203.859 236.917 204.259 237.453 204.435 238.077C204.596 238.795 204.561 239.543 204.333 240.243C204.104 240.942 203.692 241.567 203.139 242.052C201.931 243.087 200.412 243.687 198.823 243.758C197.204 243.875 195.593 243.443 194.252 242.529C193.603 242.096 193.07 241.51 192.699 240.824C192.36 240.112 192.218 239.323 192.29 238.538C192.547 236.903 193.39 235.418 194.661 234.359C195.279 233.791 195.954 233.288 196.674 232.857C197.403 232.43 198.154 232.043 198.925 231.698C202.058 230.338 205.422 229.592 208.836 229.497C209.689 229.497 210.542 229.497 211.395 229.497C212.248 229.497 213.101 229.599 213.937 229.736C215.632 229.947 217.309 230.289 218.952 230.759C220.601 231.226 222.219 231.795 223.796 232.465C225.366 233.147 226.867 233.983 228.368 234.802C231.349 236.516 234.164 238.503 236.777 240.738C239.38 242.994 241.746 245.509 243.84 248.244C245.893 251.011 247.664 253.977 249.128 257.097C252.014 263.389 253.542 270.218 253.614 277.14C253.661 278.841 253.371 280.534 252.761 282.121C252.092 283.646 250.874 284.864 249.349 285.533C248.618 285.875 247.82 286.051 247.012 286.051C246.205 286.051 245.407 285.875 244.675 285.533C243.187 284.887 241.977 283.732 241.264 282.275C241.065 281.523 241.04 280.737 241.191 279.974C241.342 279.211 241.664 278.493 242.134 277.874C242.53 277.274 243.14 276.847 243.84 276.68C243.998 276.662 244.158 276.662 244.317 276.68C244.48 276.685 244.64 276.714 244.795 276.765C245.109 276.843 245.397 277.001 245.631 277.226C246.125 277.699 246.479 278.301 246.65 278.964C246.822 279.627 246.806 280.324 246.603 280.979C246.509 281.19 246.352 281.367 246.154 281.486C245.955 281.605 245.725 281.66 245.494 281.644C245.354 281.573 245.241 281.46 245.17 281.32C245.17 281.149 245.17 281.064 245.17 281.081C245.31 280.854 245.354 280.582 245.293 280.323C245.232 280.064 245.072 279.84 244.846 279.699C244.735 279.628 244.61 279.58 244.479 279.557C244.349 279.535 244.215 279.539 244.087 279.569C243.958 279.599 243.836 279.655 243.729 279.733C243.623 279.811 243.532 279.91 243.464 280.023C243.26 280.38 243.165 280.79 243.191 281.2C243.207 281.567 243.313 281.924 243.498 282.241C243.673 282.56 243.917 282.836 244.212 283.048C244.507 283.261 244.846 283.404 245.204 283.469C245.862 283.591 246.542 283.45 247.098 283.077C247.604 282.753 248.006 282.291 248.258 281.746C248.649 280.731 248.649 279.606 248.258 278.59C247.931 277.613 247.34 276.746 246.552 276.083C246.133 275.738 245.634 275.504 245.102 275.401C244.848 275.324 244.583 275.289 244.317 275.298C244.046 275.29 243.776 275.325 243.515 275.401C242.532 275.688 241.692 276.333 241.161 277.209C240.648 278.007 240.3 278.9 240.138 279.836C239.962 280.784 240.044 281.762 240.377 282.667C240.772 283.525 241.355 284.283 242.083 284.885C242.764 285.481 243.535 285.964 244.368 286.318C245.204 286.691 246.115 286.866 247.029 286.829C247.94 286.797 248.835 286.576 249.656 286.181C251.297 285.402 252.583 284.031 253.256 282.343C253.955 280.658 254.298 278.846 254.262 277.021Z" fill="white"/>
</g>
<g style="mix-blend-mode:multiply" opacity="0.2">
<path d="M155.905 294.744C154.885 291.02 154.2 287.213 153.858 283.367C152.763 273.327 154.42 263.179 158.651 254.01C134.94 308.698 218.048 311.001 242.765 292.953C259.209 281.013 259.942 264.364 255.371 251.741C258.166 257.283 260.099 263.219 261.102 269.345C261.273 270.249 261.409 271.17 261.529 272.108C269.819 334.405 172.434 354.277 155.905 294.744Z" fill="#7E8678"/>
</g>
<g style="mix-blend-mode:multiply" opacity="0.2">
<path d="M155.905 294.744C177.978 330.942 228.436 324.972 241.997 314.344C256.343 303.086 261.921 288.604 261.137 270.095C261.137 269.84 261.137 269.584 261.137 269.345C261.307 270.249 261.444 271.17 261.563 272.108C269.819 334.405 172.434 354.277 155.905 294.744Z" fill="#7E8678"/>
</g>
<path d="M207.199 365.195C203.702 361.339 199.574 336.81 201.569 319.223C202.405 311.837 204.333 305.679 207.813 302.762C212.76 298.651 217.655 304.195 219.753 317.978C219.753 318.268 219.856 318.541 219.89 318.848C222.056 333.262 212.18 370.653 207.199 365.195Z" fill="#4D2E21"/>
<g style="mix-blend-mode:screen">
<path d="M219.822 317.978C215.83 312.041 208.222 308.766 201.569 319.223C202.405 311.837 204.333 305.679 207.813 302.762C212.76 298.651 217.655 304.195 219.822 317.978Z" fill="#695D35"/>
</g>
<path d="M205.851 364.291C178.234 373.536 146.318 348.188 151.913 320.843C152.45 318.104 153.274 315.428 154.37 312.86C162.063 295.359 178.763 302.949 179.53 314.003C179.923 319.564 177.91 320.963 175.249 322.02C171.939 323.334 167.641 324.119 165.73 331.692C162.319 345.339 185.569 365.809 206.295 359.855C206.295 359.804 209.74 361.425 205.851 364.291Z" fill="#4D2E21"/>
<g style="mix-blend-mode:screen">
<path d="M175.249 321.969C174.89 315.231 164.792 306.822 154.37 312.809C162.063 295.307 178.763 302.898 179.53 313.952C179.923 319.513 177.876 320.912 175.249 321.969Z" fill="#695D35"/>
</g>
<path d="M210.406 364.291C206.806 361.476 209.996 359.855 209.996 359.855C229.135 365.894 250.68 345.373 247.524 331.692C246.467 327.189 244.641 325.091 242.68 323.846C238.705 321.321 234.151 322.362 234.765 314.003C235.379 304.246 247.473 297.201 255.234 307.675C257.882 311.638 259.629 316.133 260.352 320.843C265.435 348.136 235.873 373.485 210.406 364.291Z" fill="#4D2E21"/>
<g style="mix-blend-mode:screen">
<path d="M255.166 307.623C248.172 307.299 239.08 314.447 242.645 323.794C238.671 321.27 234.116 322.31 234.73 313.952C235.345 304.195 247.439 297.15 255.166 307.623Z" fill="#695D35"/>
</g>
<path d="M193.347 364.632C179.394 378.278 180.179 403.268 188.23 410.092C196.281 416.915 210.951 417.751 204.981 425.785C199.011 433.82 186.217 437.453 191.42 447.108C196.623 456.763 207.369 478.495 202.985 489.361C198.601 500.227 204.572 525.968 202.985 533.2C201.399 540.433 195.411 548.553 196.998 554.523C198.584 560.493 206.175 566.6 202.576 574.242C198.977 581.884 195.753 594.712 196.998 598.38C198.243 602.047 207.762 605.203 203.821 618.491C199.881 631.779 195.446 639.814 195.446 644.641C195.446 649.469 200.563 649.878 200.563 659.994C200.563 670.109 214.107 657.981 214.107 657.981C214.107 657.981 209.331 641.878 209.723 636.658C210.116 631.438 218.491 603.668 215.711 597.22C212.93 590.772 207.335 589.185 211.327 580.724C215.318 572.264 215.301 562.626 212.913 552.169C210.525 541.712 213.323 508.313 216.905 494.632C220.487 480.951 236.436 437.112 232.052 431.517C227.668 425.922 215.301 427.099 219.702 418.246C224.103 409.392 234.85 402.893 231.643 394.91C228.436 386.927 222.466 376.402 229.255 367.156C236.044 357.911 193.347 364.632 193.347 364.632Z" fill="#4D2E21"/>
<path opacity="0.3" d="M169.347 246.487C158.412 265.251 238.739 246.487 231.95 235.621C225.161 224.755 186.831 216.311 169.347 246.487Z" fill="white"/>
<path opacity="0.7" d="M189.936 232.329C183.965 238.418 218.935 236.235 217.229 231.476C215.523 226.717 197.322 224.772 189.936 232.329Z" fill="white"/>
<path opacity="0.7" d="M173.884 244.218C173.065 249.609 189.987 237.753 187.411 235.86C184.835 233.966 175.198 235.587 173.884 244.218Z" fill="white"/>
</g>
</g>
</g>
<defs>
<radialGradient id="paint0_radial_25_6347" cx="0" cy="0" r="1" gradientUnits="userSpaceOnUse" gradientTransform="translate(210.188 258.507) scale(80.708 80.667)">
<stop offset="0.01" stop-color="#A7FFF9"/>
<stop offset="0.1" stop-color="#A3F9F3"/>
<stop offset="0.23" stop-color="#99E9E4"/>
<stop offset="0.36" stop-color="#87CECA"/>
<stop offset="0.52" stop-color="#6FA9A5"/>
<stop offset="0.67" stop-color="#4F7976"/>
<stop offset="0.84" stop-color="#2A403E"/>
<stop offset="1"/>
</radialGradient>
<radialGradient id="paint1_radial_25_6347" cx="0" cy="0" r="1" gradientUnits="userSpaceOnUse" gradientTransform="translate(208.72 246.244) scale(57.7328 57.7328)">
<stop offset="0.01" stop-color="#A7FFF9"/>
<stop offset="0.26" stop-color="#A2F9F7"/>
<stop offset="0.59" stop-color="#94E9F3"/>
<stop offset="0.96" stop-color="#7DCFEC"/>
<stop offset="1" stop-color="#7ACBEB"/>
</radialGradient>
<clipPath id="clip0_25_6347">
<rect width="302.332" height="412.516" fill="white" transform="translate(56 2)"/>
</clipPath>
<clipPath id="clip1_25_6347">
<rect width="275.455" height="675.076" fill="white" transform="translate(69.437 13.4214)"/>
</clipPath>
</defs>
</svg>
